<svg id="Layer_1" data-name="Layer 1" xmlns="http://www.w3.org/2000/svg" viewBox="0 0 2000 582"><defs><style>.cls-1{fill:#883c40;}.cls-2{fill:#fbca00;}</style></defs><path class="cls-1" d="M340.23,505V363.62c0-15.18-16.58-28.18-31.76-28.18H168.53a27.5,27.5,0,0,0-27.5,27.5V506.36a27.5,27.5,0,0,1-27.5,27.5H64.08a27.5,27.5,0,0,1-27.5-27.5V74a27.5,27.5,0,0,1,27.5-27.5h49.45A27.5,27.5,0,0,1,141,74v140a27.5,27.5,0,0,0,27.5,27.5H308.47c15.18,0,31.76-10.25,31.76-25.43"/><rect class="cls-2" x="829.53" y="46.3" width="394.39" height="69.48" rx="22.36"/><path d="M440,547H335.54V46.48H440V267.41L568.4,105.05C597.71,68,641.72,46.48,688.21,46.48h47.68L542.32,291,748,540l-34,3c-57.26,0-113.3-22.44-149.5-68L440,318.21Z"/><path d="M1079.54,547H975.09V46.3h104.45Z"/><path d="M1384.61,547Q1322,547,1277,527.55T1209.17,474q-23-34.15-23-76.6,0-49.47,23.69-77.62A138.78,138.78,0,0,1,1267,278.65q33.43-12.91,84.93-24,37.6-8.34,58.13-15t34.14-18.81c9-8.11,13.57-18.93,13.57-32.36q0-22.35-19.83-37.28t-56.74-15q-33.45,0-54,13.94a62.68,62.68,0,0,0-16.79,16.54c-9.13,13.38-23.93,21.76-40.12,21.76h-2.18c-41.45,0-64.4-47.92-38.52-80.3a159.53,159.53,0,0,1,22.76-23.1q47.34-39.34,132.27-39.32,51.56,0,92.61,16.32T1542,110.82q23.67,32.38,23.66,77.68,0,52.88-24.71,82.84t-58.84,42.44q-34.08,12.57-87,23-36.21,7.65-55.7,13.2T1307,367q-12.87,11.55-12.86,30.31,0,59.14,90.48,59.15,39,0,63.72-16.66a70.5,70.5,0,0,0,21.39-22.18c9-15,25.58-23.77,43.06-23.77h3.11c39.54,0,63,44.11,41,77a146.48,146.48,0,0,1-35.08,36.47Q1468.16,547,1384.61,547Z"/><path d="M1859.55,317.29,1677.84,540.07H1553.22l204-249.24L1563.65,52.69h121.16l174.74,215.14V52.69H1964V540.07H1859.55Z"/><path d="M815.54,87.3c0-9.59,11-34.39,17.26-40.66H732.58q-69.6,0-121.48,29.52T531,162q-28.18,56.33-28.19,134.83T531,431.6q28.22,56.34,80.08,85.85T732.58,547q69.6,0,121.51-29.53t80.06-85.85q28.17-56.24,28.18-134.82T934.15,162q-1.11-2.2-2.33-4.24c-11.51-19.37-32.09-31.6-54.58-33.48l-25.18-2.11c-1.19-.1-2.38-.13-3.57-.19A34.71,34.71,0,0,1,815.54,87.3Zm8.26,325.53q-34.12,40.29-91.22,40.32t-91.19-40.32q-34.12-40.29-34.14-116t34.14-116q34.08-40.29,91.19-40.32t91.22,40.32q34.08,40.29,34.11,116T823.8,412.83Z"/></svg>